HIERARCHY
ROOT Hips
{
	OFFSET -32.860001 56.121803 44.745396
	CHANNELS 6 Xposition Yposition Zposition Zrotation Xrotation Yrotation
	JOINT Chest
	{
		OFFSET -0.637402 0.831600 5.390099
		CHANNELS 6 Xposition Yposition Zposition Zrotation Xrotation Yrotation
		JOINT Chest2
		{
			OFFSET 0.000000 0.000000 4.429901
			CHANNELS 6 Xposition Yposition Zposition Zrotation Xrotation Yrotation
			JOINT Neck
			{
				OFFSET 0.000000 0.000000 10.301395
				CHANNELS 6 Xposition Yposition Zposition Zrotation Xrotation Yrotation
				JOINT Head
				{
					OFFSET 0.000000 0.000000 2.173897
					CHANNELS 6 Xposition Yposition Zposition Zrotation Xrotation Yrotation
					End Site
					{
						OFFSET 0.000000 0.000000 8.298004
					}
				}
			}
			JOINT LeftCollar
			{
				OFFSET 2.142401 -0.572701 5.717800
				CHANNELS 6 Xposition Yposition Zposition Zrotation Xrotation Yrotation
				JOINT LeftShoulder
				{
					OFFSET 5.674000 0.000000 0.000000
					CHANNELS 6 Xposition Yposition Zposition Zrotation Xrotation Yrotation
					JOINT LeftElbow
					{
						OFFSET 0.000000 0.000000 -12.238701
						CHANNELS 6 Xposition Yposition Zposition Zrotation Xrotation Yrotation
						JOINT LeftWrist
						{
							OFFSET 0.000000 0.000000 -10.253700
							CHANNELS 6 Xposition Yposition Zposition Zrotation Xrotation Yrotation
							End Site
							{
								OFFSET 0.000000 0.000000 -2.173901
							}
						}
					}
				}
			}
			JOINT RightCollar
			{
				OFFSET -2.882599 -1.580101 6.695801
				CHANNELS 6 Xposition Yposition Zposition Zrotation Xrotation Yrotation
				JOINT RightShoulder
				{
					OFFSET -4.235600 0.000000 0.000000
					CHANNELS 6 Xposition Yposition Zposition Zrotation Xrotation Yrotation
					JOINT RightElbow
					{
						OFFSET 0.000000 0.000000 -10.709900
						CHANNELS 6 Xposition Yposition Zposition Zrotation Xrotation Yrotation
						JOINT RightWrist
						{
							OFFSET 0.000000 0.000000 -11.716801
							CHANNELS 6 Xposition Yposition Zposition Zrotation Xrotation Yrotation
							End Site
							{
								OFFSET 0.000000 0.000000 -2.173901
							}
						}
					}
				}
			}
		}
	}
	JOINT LeftHip
	{
		OFFSET 2.279499 0.210400 -2.475502
		CHANNELS 6 Xposition Yposition Zposition Zrotation Xrotation Yrotation
		JOINT LeftKnee
		{
			OFFSET 0.000000 -0.000004 -20.742800
			CHANNELS 6 Xposition Yposition Zposition Zrotation Xrotation Yrotation
			JOINT LeftAnkle
			{
				OFFSET 0.000000 0.000000 -16.666000
				CHANNELS 6 Xposition Yposition Zposition Zrotation Xrotation Yrotation
				End Site
				{
					OFFSET 0.000000 -8.310898 0.000000
				}
			}
		}
	}
	JOINT RightHip
	{
		OFFSET -1.961899 0.232300 -2.727402
		CHANNELS 6 Xposition Yposition Zposition Zrotation Xrotation Yrotation
		JOINT RightKnee
		{
			OFFSET 0.000000 -0.000004 -20.526800
			CHANNELS 6 Xposition Yposition Zposition Zrotation Xrotation Yrotation
			JOINT RightAnkle
			{
				OFFSET 0.000000 0.000000 -16.867300
				CHANNELS 6 Xposition Yposition Zposition Zrotation Xrotation Yrotation
				End Site
				{
					OFFSET 0.000000 -7.186401 0.000000
				}
			}
		}
	}
}
MOTION
Frames: 4
Frame Time: 0.041667
-43.143497 25.727003 46.187992 1161.978556 14.288260 -2.557326 -0.637411 0.831600 5.390098 -7.300085 10.886600 4.576972 0.000002 -0.000001 4.429900 1.701846 -2.003186 -0.238344 -0.000000 -0.000009 10.301394 367.109008 42.578720 -1.297018 -0.000002 0.000006 2.173901 -358.978979 3.960107 0.418291 2.142400 -0.572695 5.717798 11.267799 -19.706504 -36.370655 5.674000 -0.000004 -0.000008 261.091276 -398.973425 -155.174180 0.000005 -0.000001 -12.238705 -728.637423 -5.452769 -364.095391 0.000006 -0.000005 -10.253699 808.950175 8.578813 6.307427 -2.882602 -1.580095 6.695795 -12.921284 -19.618808 35.936255 -4.235611 -0.000002 0.000001 -256.264162 -43.438347 156.635881 -0.000003 -0.000002 -10.709904 136.089402 -169.263590 172.560167 0.000000 0.000007 -11.716795 -720.052148 -14.594728 341.305372 2.279495 0.210396 -2.475501 383.133779 -20.968539 -0.202493 -0.000000 -0.000006 -20.742796 -371.179992 23.819685 -3.368566 -0.000004 0.000008 -16.666004 368.997473 26.594774 19.321106 -1.961902 0.232300 -2.727408 -1114.881833 -28.118152 0.765794 0.000003 -0.000008 -20.526802 903.741452 159.483210 -179.853156 0.000002 0.000002 -16.867302 24.469388 33.825040 -10.802510
-43.093803 25.670607 46.203297 1161.989047 14.322116 -2.551600 -0.637399 0.831600 5.390094 -7.419574 10.834931 4.588585 -0.000002 0.000008 4.429897 1.818431 -2.018461 -0.240196 -0.000003 -0.000003 10.301406 367.081004 42.659299 -1.286068 -0.000002 0.000010 2.173890 -359.053318 3.954587 0.442567 2.142401 -0.572692 5.717806 11.307673 -19.853869 -36.468426 5.674005 0.000001 -0.000001 261.273806 -398.995008 -154.991827 -0.000003 -0.000002 -12.238692 -728.419403 -5.434433 -364.041242 -0.000001 -0.000002 -10.253700 808.949683 8.579033 6.347019 -2.882601 -1.580093 6.695801 -12.786352 -19.224679 36.075731 -4.235605 -0.000010 -0.000006 -257.309564 -43.336806 156.467544 -0.000006 0.000001 -10.709904 135.737920 -168.976093 172.200325 0.000001 -0.000001 -11.716803 -719.849209 -14.093383 341.583143 2.279498 0.210407 -2.475499 383.015179 -20.848557 -0.278524 0.000005 -0.000011 -20.742800 -371.308672 23.653322 -3.432585 0.000001 -0.000000 -16.666000 369.163474 26.710580 19.345065 -1.961895 0.232299 -2.727404 -1114.668950 -27.938938 0.896734 0.000001 -0.000001 -20.526802 903.602882 159.702991 -179.969829 0.000002 -0.000002 -16.867302 24.488737 33.858033 -10.958897
-43.049397 25.611006 46.218689 1162.000631 14.341493 -2.526147 -0.637411 0.831601 5.390092 -7.532286 10.781645 4.577841 -0.000005 0.000006 4.429904 1.935739 -2.016520 -0.241147 -0.000005 -0.000007 10.301410 366.996747 42.673338 -1.238291 -0.000001 0.000005 2.173901 -359.044849 3.954465 0.413648 2.142397 -0.572706 5.717798 11.308920 -19.962198 -36.475505 5.674004 0.000005 0.000004 261.386695 -399.008149 -154.788042 -0.000001 -0.000000 -12.238697 -728.328643 -5.457009 -364.031871 -0.000004 -0.000007 -10.253705 808.925531 8.553460 6.409604 -2.882607 -1.580097 6.695805 -12.707786 -18.858366 36.106562 -4.235601 -0.000007 -0.000011 -257.857564 -43.185886 156.502119 0.000003 0.000001 -10.709906 135.495121 -168.766721 171.959056 -0.000005 0.000002 -11.716805 -719.388308 -13.754752 341.822855 2.279495 0.210395 -2.475504 382.855954 -20.769147 -0.413412 -0.000005 -0.000002 -20.742800 -371.474810 23.581167 -3.431015 -0.000002 0.000004 -16.666000 369.230901 26.781054 19.234262 -1.961896 0.232291 -2.727407 -1114.565350 -27.790460 0.943587 0.000000 -0.000002 -20.526798 903.417428 159.833803 -180.031861 -0.000001 -0.000001 -16.867302 24.595694 33.892000 -11.057407
-43.013401 25.549704 46.231693 1161.992763 14.359749 -2.470949 -0.637408 0.831592 5.390096 -7.618318 10.730020 4.550307 0.000002 -0.000008 4.429902 2.037408 -1.994947 -0.240754 0.000000 -0.000012 10.301392 366.977485 42.621682 -1.278494 -0.000002 0.000004 2.173901 -359.006272 3.984186 0.351394 2.142400 -0.572700 5.717796 11.245937 -20.007726 -36.468105 5.673993 0.000002 0.000000 261.277904 -399.178549 -154.727567 0.000003 0.000002 -12.238698 -728.559340 -5.565198 -364.132138 -0.000001 -0.000001 -10.253704 808.919739 8.465390 6.468039 -2.882606 -1.580101 6.695799 -12.658798 -18.560137 36.081553 -4.235600 -0.000003 0.000001 -257.782869 -43.110166 156.807469 -0.000007 -0.000006 -10.709896 135.519368 -168.644406 171.862477 0.000006 0.000009 -11.716799 -718.987786 -13.705596 341.941809 2.279500 0.210406 -2.475505 382.688013 -20.754648 -0.592695 -0.000001 -0.000006 -20.742800 -371.480629 23.568845 -3.430566 -0.000002 0.000005 -16.666000 369.336441 26.870261 19.019893 -1.961895 0.232291 -2.727408 -1114.664688 -27.701219 0.850525 -0.000001 -0.000003 -20.526796 903.194218 159.864758 -180.025113 0.000000 -0.000003 -16.867300 24.909015 33.937373 -11.148437
